<svg xmlns="http://www.w3.org/2000/svg" viewBox="0 0 24 30" x="0px" y="0px"><title>disconnect-alt</title><path d="M9,19.5a2.5,2.5,0,1,0,3-2.45V14h1.5a.5.5,0,0,0,0-1h-4a.5.5,0,0,0,0,1H11v3.05A2.5035,2.5035,0,0,0,9,19.5Zm4,0A1.5,1.5,0,1,1,11.5,18,1.5017,1.5017,0,0,1,13,19.5Z"/><path d="M9.5,9a.5.5,0,0,0,0,1h4a.5.5,0,0,0,0-1H12V5.95a2.5,2.5,0,1,0-1,0V9ZM10,3.5A1.5,1.5,0,1,1,11.5,5,1.5017,1.5017,0,0,1,10,3.5Z"/><text x="0" y="39" fill="#000000" font-size="5px" font-weight="bold" font-family="'Helvetica Neue', Helvetica, Arial-Unicode, Arial, Sans-serif">Created by Travis Avery</text><text x="0" y="44" fill="#000000" font-size="5px" font-weight="bold" font-family="'Helvetica Neue', Helvetica, Arial-Unicode, Arial, Sans-serif">from the Noun Project</text></svg>