<svg xmlns="http://www.w3.org/2000/svg" xmlns:xlink="http://www.w3.org/1999/xlink" version="1.1" x="0px" y="0px" viewBox="0 0 128 160" enable-background="new 0 0 128 128" xml:space="preserve"><g><path fill="#000000" d="M49.3,9.2h6.1c1.1,0,2,0.9,2,2s-0.9,2-2,2h-6.1v12.7h9.4c1.1,0,2,0.9,2,2c0,1.1-0.9,2-2,2h-9.4v12.7h6.1   c1.1,0,2,0.9,2,2c0,1.1-0.9,2-2,2h-6.1v12.7h9.4c1.1,0,2,0.9,2,2c0,1.1-0.9,2-2,2h-9.4l0,12.7h6.1c1.1,0,2,0.9,2,2s-0.9,2-2,2h-6.1   v12.7h9.4c1.1,0,2,0.9,2,2s-0.9,2-2,2h-9.4v12.7h6.1c1.1,0,2,0.9,2,2s-0.9,2-2,2h-6.1V127h29.4l0-126H49.3V9.2z"/><polygon fill="#000000" points="2.8,31.6 44.3,31.6 44.3,2.3 2.8,12.8  "/><polygon fill="#000000" points="83.7,2.3 83.7,31.6 125.2,31.6 125.2,12.8  "/></g><text x="0" y="143" fill="#000000" font-size="5px" font-weight="bold" font-family="'Helvetica Neue', Helvetica, Arial-Unicode, Arial, Sans-serif">Created by Vectors Market</text><text x="0" y="148" fill="#000000" font-size="5px" font-weight="bold" font-family="'Helvetica Neue', Helvetica, Arial-Unicode, Arial, Sans-serif">from the Noun Project</text></svg>